<?xml version="1.0" standalone="no"?>
<!DOCTYPE svg PUBLIC "-//W3C//DTD SVG 20010904//EN"
 "http://www.w3.org/TR/2001/REC-SVG-20010904/DTD/svg10.dtd">
<svg version="1.0" xmlns="http://www.w3.org/2000/svg"
 width="512.000000pt" height="512.000000pt" viewBox="0 0 512.000000 512.000000"
 preserveAspectRatio="xMidYMid meet">
<metadata>
Created by potrace 1.14, written by Peter Selinger 2001-2017
</metadata>
<g transform="translate(0.000000,512.000000) scale(0.100000,-0.100000)"
fill="#000000" stroke="none">
<path d="M2255 5016 c-110 -56 -353 -180 -540 -276 -187 -95 -430 -219 -540
-275 -526 -269 -762 -389 -899 -459 -83 -42 -154 -80 -159 -85 -5 -5 58 -44
150 -91 87 -46 190 -100 228 -120 39 -21 154 -81 256 -134 l187 -96 538 268
c297 148 637 317 757 377 121 60 221 113 223 119 2 6 3 205 2 443 l-3 431
-200 -102z"/>
<path d="M2662 4678 l3 -443 230 -114 c127 -63 468 -233 759 -377 l529 -264
146 76 c156 82 414 216 573 299 54 27 97 55 97 60 -1 12 -70 49 -544 290 -423
215 -749 381 -1030 525 -115 59 -335 171 -488 249 l-277 142 2 -443z"/>
<path d="M2430 4015 c-58 -30 -372 -186 -697 -347 l-593 -294 98 -51 c53 -28
160 -83 237 -123 77 -40 181 -94 230 -120 50 -26 162 -85 250 -131 88 -45 228
-118 310 -161 83 -43 183 -95 223 -115 l72 -38 73 38 c39 20 136 71 215 111
79 41 149 80 157 86 8 7 15 9 15 5 0 -4 6 -3 13 3 6 5 73 41 147 80 74 38 182
94 240 124 308 160 431 225 491 257 l67 36 -282 139 c-154 77 -469 233 -699
348 -230 114 -428 208 -440 207 -12 0 -69 -25 -127 -54z"/>
<path d="M2 2530 c0 -671 2 -1220 5 -1220 6 0 174 84 273 137 41 22 161 84
265 138 221 114 277 144 289 156 13 12 14 1568 1 1579 -5 4 -62 35 -125 68
-63 33 -149 77 -190 99 -41 22 -160 84 -265 138 -104 54 -199 104 -210 112
-11 7 -25 13 -31 13 -9 0 -12 -284 -12 -1220z"/>
<path d="M5075 3736 c-11 -7 -101 -55 -200 -106 -99 -51 -216 -112 -260 -135
-44 -23 -134 -70 -200 -104 -65 -34 -124 -66 -130 -71 -7 -6 -10 -257 -9 -791
1 -757 1 -782 20 -796 10 -8 82 -46 159 -85 77 -39 145 -74 150 -78 6 -4 96
-51 200 -105 105 -54 213 -111 242 -126 29 -16 56 -29 61 -29 6 0 10 455 10
1220 0 936 -3 1220 -12 1220 -6 0 -20 -6 -31 -14z"/>
<path d="M1045 2518 l0 -693 420 -209 c231 -115 545 -271 698 -347 153 -77
282 -139 287 -139 6 0 10 252 10 674 l0 674 -82 42 c-87 44 -270 139 -423 220
-49 26 -166 87 -260 135 -93 48 -201 104 -240 125 -109 58 -403 210 -407 210
-2 0 -3 -312 -3 -692z"/>
<path d="M3895 3122 c-93 -48 -172 -89 -175 -92 -3 -3 -45 -26 -95 -51 -216
-112 -688 -358 -887 -462 l-78 -41 0 -674 0 -673 23 7 c12 4 159 75 327 159
168 84 476 237 685 341 l381 189 -1 693 c0 380 -2 692 -5 692 -3 -1 -81 -40
-175 -88z"/>
<path d="M950 1588 c-52 -29 -93 -50 -435 -228 -88 -46 -204 -107 -258 -135
l-97 -52 202 -103 c112 -56 280 -142 373 -190 94 -48 296 -151 450 -230 380
-194 667 -340 998 -509 l277 -142 0 458 0 458 -223 109 c-122 61 -442 219
-710 353 -268 134 -495 243 -505 242 -9 0 -42 -14 -72 -31z"/>
<path d="M3368 1267 l-708 -352 0 -458 0 -457 278 141 c152 78 376 192 497
254 121 62 344 176 495 253 151 77 349 178 440 224 91 47 261 134 378 193 116
60 211 109 210 110 -2 1 -70 37 -153 80 -82 43 -186 97 -230 120 -44 23 -156
82 -250 130 -93 49 -179 94 -190 102 -11 7 -29 13 -40 12 -11 0 -338 -159
-727 -352z"/>
</g>
</svg>
